Coordinates
version=1
nRows=10
nColumns=40
inDegrees=yes

Units are S.I. units (second, meters, Newtons, ...)
If the header above contains a line with 'inDegrees', this indicates whether rotational values are in degrees (yes) or radians (no).

endheader
time	pelvis_tilt	pelvis_list	pelvis_rotation	pelvis_tx	pelvis_ty	pelvis_tz	hip_flexion_r	hip_adduction_r	hip_rotation_r	knee_angle_r	knee_angle_r_beta	ankle_angle_r	subtalar_angle_r	mtp_angle_r	hip_flexion_l	hip_adduction_l	hip_rotation_l	knee_angle_l	knee_angle_l_beta	ankle_angle_l	subtalar_angle_l	mtp_angle_l	lumbar_extension	lumbar_bending	lumbar_rotation	arm_flex_r	arm_add_r	arm_rot_r	elbow_flex_r	pro_sup_r	wrist_flex_r	wrist_dev_r	arm_flex_l	arm_add_l	arm_rot_l	elbow_flex_l	pro_sup_l	wrist_flex_l	wrist_dev_l
      0.04000000	     -1.32932529	     -7.63434213	     89.76684904	      0.19271181	      0.90747780	      0.73370565	     34.32364884	      0.32967624	     -4.46943306	      4.15423749	      0.07250512	      1.55801232	      0.00000000	      0.00000000	     -8.17022240	      4.84355575	      0.18754669	      2.17341558	      0.03793326	      8.82769891	      0.00000000	     -0.00000000	     -0.19325188	     -0.49679060	     -6.34937883	     -0.00000000	     -0.00000000	      0.00000000	      0.00000000	      0.00000000	     -0.00000000	      0.00000000	      0.00000000	      0.00000000	      0.00000000	      0.00000000	      0.00000000	      0.00000000	     -0.00000000
      0.05000000	     -1.12349948	     -7.73629937	     89.79154496	      0.19352147	      0.90538280	      0.72026688	     34.55420882	      0.61933169	     -4.74408091	      4.34647322	      0.07586027	      1.42601808	      0.00000000	      0.00000000	     -8.86280177	      4.53143768	      0.16533211	      2.49015369	      0.04346138	      9.14045652	      0.00000000	      0.00000000	      0.11905659	     -0.19131674	     -6.50180352	      0.00000000	      0.00000000	      0.00000000	      0.00000000	      0.00000000	      0.00000000	      0.00000000	      0.00000000	      0.00000000	      0.00000000	      0.00000000	      0.00000000	      0.00000000	      0.00000000
      0.06000000	     -0.84199534	     -7.58273904	     89.80404407	      0.19441505	      0.90395691	      0.70683582	     34.51736878	      0.96954075	     -5.14158902	      4.78764282	      0.08356013	      1.04811235	      0.00000000	      0.00000000	     -9.57115177	      4.11752918	     -0.06909308	      3.25228591	      0.05676310	      9.29940556	      0.00000000	      0.00000000	      0.11108522	      0.18192244	     -6.33572129	      0.00000000	      0.00000000	      0.00000000	      0.00000000	      0.00000000	      0.00000000	      0.00000000	      0.00000000	      0.00000000	      0.00000000	      0.00000000	      0.00000000	      0.00000000	      0.00000000
      0.07000000	     -0.61799038	     -7.50126118	     89.81209245	      0.19525609	      0.90275765	      0.69348383	     34.52006233	      1.25467527	     -5.39412273	      5.36982717	      0.09372116	      0.57613350	      0.00000000	     -0.00000000	    -10.01912140	      3.74512665	     -0.39217226	      4.29115007	      0.07489470	      9.16016737	      0.00000000	      0.00000000	      0.17557821	      0.50499382	     -6.24840536	      0.00000000	      0.00000000	      0.00000000	      0.00000000	      0.00000000	      0.00000000	      0.00000000	      0.00000000	      0.00000000	      0.00000000	      0.00000000	      0.00000000	     -0.00000000	      0.00000000
      0.08000000	     -0.41143388	     -7.40360198	     89.81907409	      0.19613217	      0.90191111	      0.68015548	     34.46981122	      1.51550591	     -5.66359627	      6.09153438	      0.10631733	      0.01654846	      0.00000000	     -0.00000000	    -10.28178336	      3.36409058	     -0.79855259	      5.65050368	      0.09861989	      8.82618173	     -0.00000000	     -0.00000000	      0.22412884	      0.79072758	     -6.17501409	     -0.00000000	     -0.00000000	     -0.00000000	      0.00000000	      0.00000000	     -0.00000000	      0.00000000	      0.00000000	     -0.00000000	      0.00000000	      0.00000000	      0.00000000	      0.00000000	      0.00000000
      0.09000000	     -0.20672266	     -7.30348826	     89.82298508	      0.19702579	      0.90137477	      0.66685765	     34.37809815	      1.76456449	     -5.88987319	      6.93667890	      0.12106789	     -0.61739239	      0.00000000	      0.00000000	    -10.32771228	      2.95197201	     -1.28785946	      7.37135623	      0.12865444	      8.33460187	      0.00000000	      0.00000000	      0.26757154	      1.08228605	     -6.08628825	      0.00000000	      0.00000000	      0.00000000	      0.00000000	      0.00000000	      0.00000000	      0.00000000	      0.00000000	      0.00000000	      0.00000000	      0.00000000	      0.00000000	      0.00000000	      0.00000000
      0.10000000	     -0.07652471	     -7.13177472	     89.82493306	      0.19783225	      0.90122590	      0.65360846	     34.20743842	      1.91474739	     -6.17884170	      7.95054803	      0.13876324	     -1.31456574	      0.00000000	      0.00000000	    -10.29698885	      2.59252310	     -1.80807158	      9.30523358	      0.16240696	      7.43309399	     -0.00000000	     -0.00000000	      0.21574494	      1.29711682	     -6.00178453	      0.00000000	     -0.00000000	     -0.00000000	      0.00000000	      0.00000000	     -0.00000000	     -0.00000000	     -0.00000000	     -0.00000000	      0.00000000	      0.00000000	      0.00000000	     -0.00000000	      0.00000000
      0.11000000	      0.10389404	     -7.01324224	     89.82584983	      0.19876255	      0.90126584	      0.64038333	     34.03281819	      2.12577854	     -6.32519945	      9.01086875	      0.15726933	     -2.00273977	      0.00000000	      0.00000000	     -9.96385758	      2.12461628	     -2.35095589	     11.65092482	      0.20334700	      6.50150998	      0.00000000	      0.00000000	      0.22437638	      1.55015235	     -5.88608062	      0.00000000	      0.00000000	      0.00000000	      0.00000000	      0.00000000	      0.00000000	      0.00000000	      0.00000000	      0.00000000	      0.00000000	      0.00000000	      0.00000000	      0.00000000	      0.00000000
      0.12000000	      0.22935387	     -6.81637612	     89.82614227	      0.19963575	      0.90165554	      0.62719566	     33.76041668	      2.26230833	     -6.54486402	     10.17925250	      0.17766147	     -2.68505419	      0.00000000	      0.00000000	     -9.55353501	      1.67710680	     -2.91317578	     14.21917081	      0.24817135	      5.16772266	      0.00000000	      0.00000000	      0.14029797	      1.74460521	     -5.80317714	      0.00000000	      0.00000000	      0.00000000	      0.00000000	      0.00000000	      0.00000000	      0.00000000	      0.00000000	      0.00000000	      0.00000000	      0.00000000	      0.00000000	      0.00000000	      0.00000000
      0.13000000	      0.34306352	     -6.61536584	     89.82420613	      0.20050962	      0.90226559	      0.61406115	     33.44513419	      2.38749258	     -6.64597325	     11.39183658	      0.19882506	     -3.31651609	      0.00000000	      0.00000000	     -8.95284747	      1.20854446	     -3.37598347	     17.07995584	      0.29810147	      3.64036427	      0.00000000	      0.00000000	      0.04404981	      1.92821237	     -5.68833446	      0.00000000	      0.00000000	      0.00000000	      0.00000000	      0.00000000	      0.00000000	      0.00000000	      0.00000000	      0.00000000	      0.00000000	      0.00000000	      0.00000000	      0.00000000	      0.00000000
